<?xml version="1.0" encoding="UTF-8" standalone="no"?>
<!DOCTYPE svg PUBLIC "-//W3C//DTD SVG 1.1//EN"
 "http://www.w3.org/Graphics/SVG/1.1/DTD/svg11.dtd">
<!-- Generated by graphviz version 15.1.0 (20260618.0150)
 -->
<!-- Title: music_processing_flow Pages: 1 -->
<svg width="1959pt" height="757pt"
 viewBox="0.00 0.00 1959.00 757.00" xmlns="http://www.w3.org/2000/svg" xmlns:xlink="http://www.w3.org/1999/xlink">
<g id="graph0" class="graph" transform="scale(1 1) rotate(0) translate(4 753.42)">
<title>music_processing_flow</title>
<polygon fill="white" stroke="none" points="-4,4 -4,-753.42 1954.83,-753.42 1954.83,4 -4,4"/>
<text xml:space="preserve" text-anchor="middle" x="975.41" y="-728.32" font-family="Helvetica,sans-Serif" font-size="18.00">Music Processing CLI Patterns</text>
<g id="clust1" class="cluster">
<title>cluster_patterns</title>
<path fill="white" stroke="#94a3b8" d="M20,-78.5C20,-78.5 1667,-78.5 1667,-78.5 1673,-78.5 1679,-84.5 1679,-90.5 1679,-90.5 1679,-393.42 1679,-393.42 1679,-399.42 1673,-405.42 1667,-405.42 1667,-405.42 20,-405.42 20,-405.42 14,-405.42 8,-399.42 8,-393.42 8,-393.42 8,-90.5 8,-90.5 8,-84.5 14,-78.5 20,-78.5"/>
<text xml:space="preserve" text-anchor="middle" x="843.5" y="-389.07" font-family="Helvetica,sans-Serif" font-size="13.00">Unique command input patterns</text>
</g>
<!-- start -->
<g id="node1" class="node">
<title>start</title>
<path fill="#dcfce7" stroke="#334155" stroke-width="1.2" d="M1868.33,-720.42C1868.33,-720.42 1813.67,-720.42 1813.67,-720.42 1807.67,-720.42 1801.67,-714.42 1801.67,-708.42 1801.67,-708.42 1801.67,-696.42 1801.67,-696.42 1801.67,-690.42 1807.67,-684.42 1813.67,-684.42 1813.67,-684.42 1868.33,-684.42 1868.33,-684.42 1874.33,-684.42 1880.33,-690.42 1880.33,-696.42 1880.33,-696.42 1880.33,-708.42 1880.33,-708.42 1880.33,-714.42 1874.33,-720.42 1868.33,-720.42"/>
<text xml:space="preserve" text-anchor="middle" x="1841" y="-698.92" font-family="Helvetica,sans-Serif" font-size="10.00">Start main.py</text>
</g>
<!-- entry -->
<g id="node2" class="node">
<title>entry</title>
<path fill="#f8fafc" stroke="#334155" stroke-width="1.2" d="M1938.83,-643.42C1938.83,-643.42 1743.17,-643.42 1743.17,-643.42 1737.17,-643.42 1731.17,-637.42 1731.17,-631.42 1731.17,-631.42 1731.17,-619.42 1731.17,-619.42 1731.17,-613.42 1737.17,-607.42 1743.17,-607.42 1743.17,-607.42 1938.83,-607.42 1938.83,-607.42 1944.83,-607.42 1950.83,-613.42 1950.83,-619.42 1950.83,-619.42 1950.83,-631.42 1950.83,-631.42 1950.83,-637.42 1944.83,-643.42 1938.83,-643.42"/>
<text xml:space="preserve" text-anchor="middle" x="1841" y="-621.92" font-family="Helvetica,sans-Serif" font-size="10.00">Create custom parser and register subparsers</text>
</g>
<!-- start&#45;&gt;entry -->
<g id="edge1" class="edge">
<title>start&#45;&gt;entry</title>
<path fill="none" stroke="#475569" stroke-width="1.1" d="M1841,-684.02C1841,-675.57 1841,-665.17 1841,-655.55"/>
<polygon fill="#475569" stroke="#475569" stroke-width="1.1" points="1844.5,-655.65 1841,-645.65 1837.5,-655.65 1844.5,-655.65"/>
</g>
<!-- parse -->
<g id="node3" class="node">
<title>parse</title>
<path fill="#f8fafc" stroke="#334155" stroke-width="1.2" d="M1854.83,-566.42C1854.83,-566.42 1689.17,-566.42 1689.17,-566.42 1683.17,-566.42 1677.17,-560.42 1677.17,-554.42 1677.17,-554.42 1677.17,-542.42 1677.17,-542.42 1677.17,-536.42 1683.17,-530.42 1689.17,-530.42 1689.17,-530.42 1854.83,-530.42 1854.83,-530.42 1860.83,-530.42 1866.83,-536.42 1866.83,-542.42 1866.83,-542.42 1866.83,-554.42 1866.83,-554.42 1866.83,-560.42 1860.83,-566.42 1854.83,-566.42"/>
<text xml:space="preserve" text-anchor="middle" x="1772" y="-544.92" font-family="Helvetica,sans-Serif" font-size="10.00">Parse and validate selected arguments</text>
</g>
<!-- entry&#45;&gt;parse -->
<g id="edge2" class="edge">
<title>entry&#45;&gt;parse</title>
<path fill="none" stroke="#475569" stroke-width="1.1" d="M1825,-607.02C1816.35,-597.63 1805.5,-585.84 1795.88,-575.37"/>
<polygon fill="#475569" stroke="#475569" stroke-width="1.1" points="1798.63,-573.2 1789.28,-568.21 1793.48,-577.93 1798.63,-573.2"/>
</g>
<!-- exception -->
<g id="node5" class="node">
<title>exception</title>
<path fill="#fee2e2" stroke="#b91c1c" stroke-width="1.2" d="M1908.45,-337.94C1908.45,-337.94 1851.55,-337.94 1851.55,-337.94 1845.55,-337.94 1839.55,-331.94 1839.55,-325.94 1839.55,-325.94 1839.55,-313.94 1839.55,-313.94 1839.55,-307.94 1845.55,-301.94 1851.55,-301.94 1851.55,-301.94 1908.45,-301.94 1908.45,-301.94 1914.45,-301.94 1920.45,-307.94 1920.45,-313.94 1920.45,-313.94 1920.45,-325.94 1920.45,-325.94 1920.45,-331.94 1914.45,-337.94 1908.45,-337.94"/>
<text xml:space="preserve" text-anchor="middle" x="1880" y="-316.44" font-family="Helvetica,sans-Serif" font-size="10.00">Log exception</text>
</g>
<!-- entry&#45;&gt;exception -->
<g id="edge4" class="edge">
<title>entry&#45;&gt;exception</title>
<path fill="none" stroke="#475569" stroke-width="1.1" stroke-dasharray="5,2" d="M1853,-607.02C1864.78,-589.93 1881,-566.42 1881,-566.42 1881,-566.42 1881,-530.42 1881,-530.42 1881,-530.42 1880.41,-407.49 1880.14,-349.97"/>
<polygon fill="#475569" stroke="#475569" stroke-width="1.1" points="1883.64,-350.09 1880.09,-340.1 1876.64,-350.12 1883.64,-350.09"/>
<text xml:space="preserve" text-anchor="middle" x="1900.78" y="-501.87" font-family="Helvetica,sans-Serif" font-size="9.00">exception</text>
</g>
<!-- dispatch -->
<g id="node4" class="node">
<title>dispatch</title>
<path fill="#dbeafe" stroke="#334155" stroke-width="1.2" d="M1357.83,-479.92C1357.83,-479.92 1198.17,-479.92 1198.17,-479.92 1192.17,-479.92 1186.17,-473.92 1186.17,-467.92 1186.17,-467.92 1186.17,-455.92 1186.17,-455.92 1186.17,-449.92 1192.17,-443.92 1198.17,-443.92 1198.17,-443.92 1357.83,-443.92 1357.83,-443.92 1363.83,-443.92 1369.83,-449.92 1369.83,-455.92 1369.83,-455.92 1369.83,-467.92 1369.83,-467.92 1369.83,-473.92 1363.83,-479.92 1357.83,-479.92"/>
<text xml:space="preserve" text-anchor="middle" x="1278" y="-458.42" font-family="Helvetica,sans-Serif" font-size="10.00">main(args): evaluate command inputs</text>
</g>
<!-- parse&#45;&gt;dispatch -->
<g id="edge3" class="edge">
<title>parse&#45;&gt;dispatch</title>
<path fill="none" stroke="#475569" stroke-width="1.1" d="M1676.75,-531.13C1592.01,-516.63 1468.36,-495.48 1381.27,-480.58"/>
<polygon fill="#475569" stroke="#475569" stroke-width="1.1" points="1382.12,-477.18 1371.67,-478.94 1380.94,-484.08 1382.12,-477.18"/>
</g>
<!-- parse&#45;&gt;exception -->
<g id="edge5" class="edge">
<title>parse&#45;&gt;exception</title>
<path fill="none" stroke="#475569" stroke-width="1.1" stroke-dasharray="5,2" d="M1780.3,-530.02C1798.91,-491 1844.12,-396.17 1866.71,-348.82"/>
<polygon fill="#475569" stroke="#475569" stroke-width="1.1" points="1869.81,-350.43 1870.96,-339.9 1863.5,-347.42 1869.81,-350.43"/>
<text xml:space="preserve" text-anchor="middle" x="1840.48" y="-458.62" font-family="Helvetica,sans-Serif" font-size="9.00">exception</text>
</g>
<!-- dispatch&#45;&gt;exception -->
<g id="edge6" class="edge">
<title>dispatch&#45;&gt;exception</title>
<path fill="none" stroke="#475569" stroke-width="1.1" stroke-dasharray="5,2" d="M1370.17,-451.57C1526.06,-435.75 1825,-405.42 1825,-405.42 1825,-405.42 1846.24,-372.8 1862.32,-348.1"/>
<polygon fill="#475569" stroke="#475569" stroke-width="1.1" points="1865.17,-350.13 1867.7,-339.84 1859.31,-346.31 1865.17,-350.13"/>
<text xml:space="preserve" text-anchor="middle" x="1765.48" y="-415.37" font-family="Helvetica,sans-Serif" font-size="9.00">exception</text>
</g>
<!-- man_file_branch -->
<g id="node7" class="node">
<title>man_file_branch</title>
<path fill="#fef3c7" stroke="#334155" stroke-width="1.2" d="M746.83,-362.42C746.83,-362.42 551.17,-362.42 551.17,-362.42 545.17,-362.42 539.17,-356.42 539.17,-350.42 539.17,-350.42 539.17,-289.46 539.17,-289.46 539.17,-283.46 545.17,-277.46 551.17,-277.46 551.17,-277.46 746.83,-277.46 746.83,-277.46 752.83,-277.46 758.83,-283.46 758.83,-289.46 758.83,-289.46 758.83,-350.42 758.83,-350.42 758.83,-356.42 752.83,-362.42 746.83,-362.42"/>
<text xml:space="preserve" text-anchor="middle" x="649" y="-346.44" font-family="Helvetica,sans-Serif" font-size="10.00">mandatory file path:</text>
<text xml:space="preserve" text-anchor="middle" x="649" y="-334.44" font-family="Helvetica,sans-Serif" font-size="10.00">convert&#45;file,</text>
<text xml:space="preserve" text-anchor="middle" x="649" y="-322.44" font-family="Helvetica,sans-Serif" font-size="10.00">ebu&#45;file, peak&#45;file, rms&#45;file,</text>
<text xml:space="preserve" text-anchor="middle" x="649" y="-310.44" font-family="Helvetica,sans-Serif" font-size="10.00">extract&#45;file,</text>
<text xml:space="preserve" text-anchor="middle" x="649" y="-298.44" font-family="Helvetica,sans-Serif" font-size="10.00">get&#45;ffprobe&#45;media&#45;info, get&#45;ffprobe&#45;media&#45;tags,</text>
<text xml:space="preserve" text-anchor="middle" x="649" y="-286.44" font-family="Helvetica,sans-Serif" font-size="10.00">normalize&#45;{flac,mp3,mp4,wma}&#45;filename</text>
</g>
<!-- dispatch&#45;&gt;man_file_branch -->
<g id="edge16" class="edge">
<title>dispatch&#45;&gt;man_file_branch</title>
<path fill="none" stroke="#475569" stroke-width="1.1" d="M1185.74,-450.45C1044.03,-434.36 789,-405.42 789,-405.42 789,-405.42 760.03,-387.94 728.45,-368.88"/>
<polygon fill="#475569" stroke="#475569" stroke-width="1.1" points="730.39,-365.96 720.02,-363.79 726.77,-371.96 730.39,-365.96"/>
</g>
<!-- man_file_terminal_branch -->
<g id="node9" class="node">
<title>man_file_terminal_branch</title>
<path fill="#fef3c7" stroke="#334155" stroke-width="1.2" d="M900.33,-344.42C900.33,-344.42 815.67,-344.42 815.67,-344.42 809.67,-344.42 803.67,-338.42 803.67,-332.42 803.67,-332.42 803.67,-307.46 803.67,-307.46 803.67,-301.46 809.67,-295.46 815.67,-295.46 815.67,-295.46 900.33,-295.46 900.33,-295.46 906.33,-295.46 912.33,-301.46 912.33,-307.46 912.33,-307.46 912.33,-332.42 912.33,-332.42 912.33,-338.42 906.33,-344.42 900.33,-344.42"/>
<text xml:space="preserve" text-anchor="middle" x="858" y="-328.44" font-family="Helvetica,sans-Serif" font-size="10.00">mandatory file path</text>
<text xml:space="preserve" text-anchor="middle" x="858" y="-316.44" font-family="Helvetica,sans-Serif" font-size="10.00">with terminal output:</text>
<text xml:space="preserve" text-anchor="middle" x="858" y="-304.44" font-family="Helvetica,sans-Serif" font-size="10.00">get&#45;mutagen&#45;tags</text>
</g>
<!-- dispatch&#45;&gt;man_file_terminal_branch -->
<g id="edge17" class="edge">
<title>dispatch&#45;&gt;man_file_terminal_branch</title>
<path fill="none" stroke="#475569" stroke-width="1.1" d="M1185.81,-446.05C1083.92,-429.61 934,-405.42 934,-405.42 934,-405.42 908.65,-377.24 887.23,-353.44"/>
<polygon fill="#475569" stroke="#475569" stroke-width="1.1" points="889.98,-351.25 880.69,-346.16 884.77,-355.94 889.98,-351.25"/>
</g>
<!-- man_tld_branch -->
<g id="node11" class="node">
<title>man_tld_branch</title>
<path fill="#fef3c7" stroke="#334155" stroke-width="1.2" d="M495.21,-374.42C495.21,-374.42 298.79,-374.42 298.79,-374.42 292.79,-374.42 286.79,-368.42 286.79,-362.42 286.79,-362.42 286.79,-277.46 286.79,-277.46 286.79,-271.46 292.79,-265.46 298.79,-265.46 298.79,-265.46 495.21,-265.46 495.21,-265.46 501.21,-265.46 507.21,-271.46 507.21,-277.46 507.21,-277.46 507.21,-362.42 507.21,-362.42 507.21,-368.42 501.21,-374.42 495.21,-374.42"/>
<text xml:space="preserve" text-anchor="middle" x="397" y="-358.44" font-family="Helvetica,sans-Serif" font-size="10.00">mandatory top level directory:</text>
<text xml:space="preserve" text-anchor="middle" x="397" y="-346.44" font-family="Helvetica,sans-Serif" font-size="10.00">create&#45;albums, remove&#45;albums,,</text>
<text xml:space="preserve" text-anchor="middle" x="397" y="-334.44" font-family="Helvetica,sans-Serif" font-size="10.00">remove&#45;set&#45;list,</text>
<text xml:space="preserve" text-anchor="middle" x="397" y="-322.44" font-family="Helvetica,sans-Serif" font-size="10.00">set&#45;album&#45;art,</text>
<text xml:space="preserve" text-anchor="middle" x="397" y="-310.44" font-family="Helvetica,sans-Serif" font-size="10.00">get&#45;unique&#45;media,</text>
<text xml:space="preserve" text-anchor="middle" x="397" y="-298.44" font-family="Helvetica,sans-Serif" font-size="10.00">list&#45;audio,</text>
<text xml:space="preserve" text-anchor="middle" x="397" y="-286.44" font-family="Helvetica,sans-Serif" font-size="10.00">normalize&#45;{flac,mp3,mp4,wma}&#45;filename&#45;walk,</text>
<text xml:space="preserve" text-anchor="middle" x="397" y="-274.44" font-family="Helvetica,sans-Serif" font-size="10.00">update&#45;walk</text>
</g>
<!-- dispatch&#45;&gt;man_tld_branch -->
<g id="edge18" class="edge">
<title>dispatch&#45;&gt;man_tld_branch</title>
<path fill="none" stroke="#475569" stroke-width="1.1" d="M1185.67,-454.11C984.59,-439.29 525,-405.42 525,-405.42 525,-405.42 508.97,-394.84 488.26,-381.17"/>
<polygon fill="#475569" stroke="#475569" stroke-width="1.1" points="490.45,-378.43 480.18,-375.84 486.6,-384.27 490.45,-378.43"/>
</g>
<!-- man_tld_two_opt_branch -->
<g id="node15" class="node">
<title>man_tld_two_opt_branch</title>
<path fill="#fef3c7" stroke="#334155" stroke-width="1.2" d="M1339.45,-350.42C1339.45,-350.42 1216.55,-350.42 1216.55,-350.42 1210.55,-350.42 1204.55,-344.42 1204.55,-338.42 1204.55,-338.42 1204.55,-301.46 1204.55,-301.46 1204.55,-295.46 1210.55,-289.46 1216.55,-289.46 1216.55,-289.46 1339.45,-289.46 1339.45,-289.46 1345.45,-289.46 1351.45,-295.46 1351.45,-301.46 1351.45,-301.46 1351.45,-338.42 1351.45,-338.42 1351.45,-344.42 1345.45,-350.42 1339.45,-350.42"/>
<text xml:space="preserve" text-anchor="middle" x="1278" y="-334.44" font-family="Helvetica,sans-Serif" font-size="10.00">mandatory top level directory</text>
<text xml:space="preserve" text-anchor="middle" x="1278" y="-322.44" font-family="Helvetica,sans-Serif" font-size="10.00">with optional file pattern and</text>
<text xml:space="preserve" text-anchor="middle" x="1278" y="-310.44" font-family="Helvetica,sans-Serif" font-size="10.00">with optional ffprobe boolean:</text>
<text xml:space="preserve" text-anchor="middle" x="1278" y="-298.44" font-family="Helvetica,sans-Serif" font-size="10.00">get&#45;tags&#45;walk</text>
</g>
<!-- dispatch&#45;&gt;man_tld_two_opt_branch -->
<g id="edge20" class="edge">
<title>dispatch&#45;&gt;man_tld_two_opt_branch</title>
<path fill="none" stroke="#475569" stroke-width="1.1" d="M1278,-443.47C1278,-423.3 1278,-389.4 1278,-362.37"/>
<polygon fill="#475569" stroke="#475569" stroke-width="1.1" points="1281.5,-362.55 1278,-352.55 1274.5,-362.55 1281.5,-362.55"/>
</g>
<!-- man_tld_man_arg_branch -->
<g id="node17" class="node">
<title>man_tld_man_arg_branch</title>
<path fill="#fef3c7" stroke="#334155" stroke-width="1.2" d="M1555.45,-356.42C1555.45,-356.42 1414.55,-356.42 1414.55,-356.42 1408.55,-356.42 1402.55,-350.42 1402.55,-344.42 1402.55,-344.42 1402.55,-295.46 1402.55,-295.46 1402.55,-289.46 1408.55,-283.46 1414.55,-283.46 1414.55,-283.46 1555.45,-283.46 1555.45,-283.46 1561.45,-283.46 1567.45,-289.46 1567.45,-295.46 1567.45,-295.46 1567.45,-344.42 1567.45,-344.42 1567.45,-350.42 1561.45,-356.42 1555.45,-356.42"/>
<text xml:space="preserve" text-anchor="middle" x="1485" y="-340.44" font-family="Helvetica,sans-Serif" font-size="10.00">mandatory top level directory and</text>
<text xml:space="preserve" text-anchor="middle" x="1485" y="-328.44" font-family="Helvetica,sans-Serif" font-size="10.00">mandatory second argument:</text>
<text xml:space="preserve" text-anchor="middle" x="1485" y="-316.44" font-family="Helvetica,sans-Serif" font-size="10.00">level&#45;normalize&#45;walk,</text>
<text xml:space="preserve" text-anchor="middle" x="1485" y="-304.44" font-family="Helvetica,sans-Serif" font-size="10.00">remove&#45;pattern,</text>
<text xml:space="preserve" text-anchor="middle" x="1485" y="-292.44" font-family="Helvetica,sans-Serif" font-size="10.00">update&#45;m3u</text>
</g>
<!-- dispatch&#45;&gt;man_tld_man_arg_branch -->
<g id="edge21" class="edge">
<title>dispatch&#45;&gt;man_tld_man_arg_branch</title>
<path fill="none" stroke="#475569" stroke-width="1.1" d="M1305.84,-443.36C1331.62,-427.1 1366,-405.42 1366,-405.42 1366,-405.42 1395.44,-384.52 1425.03,-363.51"/>
<polygon fill="#475569" stroke="#475569" stroke-width="1.1" points="1426.7,-366.62 1432.83,-357.98 1422.65,-360.91 1426.7,-366.62"/>
</g>
<!-- man_tld_man_file_branch -->
<g id="node19" class="node">
<title>man_tld_man_file_branch</title>
<path fill="#fef3c7" stroke="#334155" stroke-width="1.2" d="M236.45,-350.42C236.45,-350.42 95.55,-350.42 95.55,-350.42 89.55,-350.42 83.55,-344.42 83.55,-338.42 83.55,-338.42 83.55,-301.46 83.55,-301.46 83.55,-295.46 89.55,-289.46 95.55,-289.46 95.55,-289.46 236.45,-289.46 236.45,-289.46 242.45,-289.46 248.45,-295.46 248.45,-301.46 248.45,-301.46 248.45,-338.42 248.45,-338.42 248.45,-344.42 242.45,-350.42 236.45,-350.42"/>
<text xml:space="preserve" text-anchor="middle" x="166" y="-334.44" font-family="Helvetica,sans-Serif" font-size="10.00">mandatory top level directory and</text>
<text xml:space="preserve" text-anchor="middle" x="166" y="-322.44" font-family="Helvetica,sans-Serif" font-size="10.00">mandatory CSV path</text>
<text xml:space="preserve" text-anchor="middle" x="166" y="-310.44" font-family="Helvetica,sans-Serif" font-size="10.00">with terminal output:</text>
<text xml:space="preserve" text-anchor="middle" x="166" y="-298.44" font-family="Helvetica,sans-Serif" font-size="10.00">update&#45;genres&#45;from&#45;csv</text>
</g>
<!-- dispatch&#45;&gt;man_tld_man_file_branch -->
<g id="edge22" class="edge">
<title>dispatch&#45;&gt;man_tld_man_file_branch</title>
<path fill="none" stroke="#475569" stroke-width="1.1" d="M1185.61,-455.82C936.92,-442.1 272,-405.42 272,-405.42 272,-405.42 241.17,-380.85 212.77,-358.21"/>
<polygon fill="#475569" stroke="#475569" stroke-width="1.1" points="214.97,-355.5 204.97,-352 210.61,-360.97 214.97,-355.5"/>
</g>
<!-- optional_pattern_branch -->
<g id="node22" class="node">
<title>optional_pattern_branch</title>
<path fill="#f8fafc" stroke="#334155" stroke-width="1.2" d="M1798.83,-337.94C1798.83,-337.94 1699.17,-337.94 1699.17,-337.94 1693.17,-337.94 1687.17,-331.94 1687.17,-325.94 1687.17,-325.94 1687.17,-313.94 1687.17,-313.94 1687.17,-307.94 1693.17,-301.94 1699.17,-301.94 1699.17,-301.94 1798.83,-301.94 1798.83,-301.94 1804.83,-301.94 1810.83,-307.94 1810.83,-313.94 1810.83,-313.94 1810.83,-325.94 1810.83,-325.94 1810.83,-331.94 1804.83,-337.94 1798.83,-337.94"/>
<text xml:space="preserve" text-anchor="middle" x="1749" y="-316.44" font-family="Helvetica,sans-Serif" font-size="10.00">optional_pattern_branch</text>
</g>
<!-- dispatch&#45;&gt;optional_pattern_branch -->
<g id="edge19" class="edge">
<title>dispatch&#45;&gt;optional_pattern_branch</title>
<path fill="none" stroke="#475569" stroke-width="1.1" d="M1370.41,-448.26C1489.94,-431.88 1683,-405.42 1683,-405.42 1683,-405.42 1708.94,-372.22 1728.3,-347.44"/>
<polygon fill="#475569" stroke="#475569" stroke-width="1.1" points="1730.9,-349.79 1734.3,-339.76 1725.39,-345.48 1730.9,-349.79"/>
</g>
<!-- end -->
<g id="node6" class="node">
<title>end</title>
<ellipse fill="#e2e8f0" stroke="#334155" stroke-width="1.2" cx="830" cy="-18" rx="27" ry="18"/>
<text xml:space="preserve" text-anchor="middle" x="830" y="-14.5" font-family="Helvetica,sans-Serif" font-size="10.00">End</text>
</g>
<!-- exception&#45;&gt;end -->
<g id="edge7" class="edge">
<title>exception&#45;&gt;end</title>
<path fill="none" stroke="#475569" stroke-width="1.1" d="M1866.05,-301.65C1821.57,-246.52 1686,-78.5 1686,-78.5 1686,-78.5 1035.5,-33.28 868.63,-21.69"/>
<polygon fill="#475569" stroke="#475569" stroke-width="1.1" points="868.91,-18.2 858.69,-20.99 868.43,-25.18 868.91,-18.2"/>
</g>
<!-- man_file_action -->
<g id="node8" class="node">
<title>man_file_action</title>
<path fill="#f8fafc" stroke="#334155" stroke-width="1.2" d="M642.71,-212.46C642.71,-212.46 509.3,-212.46 509.3,-212.46 503.3,-212.46 497.3,-206.46 497.3,-200.46 497.3,-200.46 497.3,-187.5 497.3,-187.5 497.3,-181.5 503.3,-175.5 509.3,-175.5 509.3,-175.5 642.71,-175.5 642.71,-175.5 648.71,-175.5 654.71,-181.5 654.71,-187.5 654.71,-187.5 654.71,-200.46 654.71,-200.46 654.71,-206.46 648.71,-212.46 642.71,-212.46"/>
<text xml:space="preserve" text-anchor="middle" x="576" y="-196.48" font-family="Helvetica,sans-Serif" font-size="10.00">file_path = getattr(args, &#39;file&#39;)</text>
<text xml:space="preserve" text-anchor="middle" x="576" y="-184.48" font-family="Helvetica,sans-Serif" font-size="10.00">Call matching handler(file_path)</text>
</g>
<!-- man_file_branch&#45;&gt;man_file_action -->
<g id="edge8" class="edge">
<title>man_file_branch&#45;&gt;man_file_action</title>
<path fill="none" stroke="#475569" stroke-width="1.1" d="M624.29,-276.97C613.77,-259.11 601.79,-238.77 592.39,-222.81"/>
<polygon fill="#475569" stroke="#475569" stroke-width="1.1" points="595.56,-221.31 587.47,-214.46 589.53,-224.86 595.56,-221.31"/>
</g>
<!-- man_file_action&#45;&gt;end -->
<g id="edge23" class="edge">
<title>man_file_action&#45;&gt;end</title>
<path fill="none" stroke="#475569" stroke-width="1.1" d="M632.78,-174.98C652.14,-168.84 669,-163.5 669,-163.5 669,-163.5 734,-143.5 734,-143.5 734,-143.5 783.13,-79.79 811.1,-43.52"/>
<polygon fill="#475569" stroke="#475569" stroke-width="1.1" points="813.68,-45.89 817.02,-35.83 808.14,-41.62 813.68,-45.89"/>
</g>
<!-- man_file_terminal_action -->
<g id="node10" class="node">
<title>man_file_terminal_action</title>
<path fill="#f8fafc" stroke="#334155" stroke-width="1.2" d="M876.33,-218.46C876.33,-218.46 695.67,-218.46 695.67,-218.46 689.67,-218.46 683.67,-212.46 683.67,-206.46 683.67,-206.46 683.67,-181.5 683.67,-181.5 683.67,-175.5 689.67,-169.5 695.67,-169.5 695.67,-169.5 876.33,-169.5 876.33,-169.5 882.33,-169.5 888.33,-175.5 888.33,-181.5 888.33,-181.5 888.33,-206.46 888.33,-206.46 888.33,-212.46 882.33,-218.46 876.33,-218.46"/>
<text xml:space="preserve" text-anchor="middle" x="786" y="-202.48" font-family="Helvetica,sans-Serif" font-size="10.00">file_path = getattr(args, &#39;file&#39;)</text>
<text xml:space="preserve" text-anchor="middle" x="786" y="-190.48" font-family="Helvetica,sans-Serif" font-size="10.00">Call matching handler(file_path)</text>
<text xml:space="preserve" text-anchor="middle" x="786" y="-178.48" font-family="Helvetica,sans-Serif" font-size="10.00">output: pretty print returned tags dictionary</text>
</g>
<!-- man_file_terminal_branch&#45;&gt;man_file_terminal_action -->
<g id="edge9" class="edge">
<title>man_file_terminal_branch&#45;&gt;man_file_terminal_action</title>
<path fill="none" stroke="#475569" stroke-width="1.1" d="M844.12,-295.04C833.16,-276.18 817.74,-249.63 805.54,-228.62"/>
<polygon fill="#475569" stroke="#475569" stroke-width="1.1" points="808.73,-227.14 800.68,-220.25 802.67,-230.65 808.73,-227.14"/>
</g>
<!-- man_file_terminal_action&#45;&gt;end -->
<g id="edge24" class="edge">
<title>man_file_terminal_action&#45;&gt;end</title>
<path fill="none" stroke="#475569" stroke-width="1.1" d="M792.03,-169.15C800.07,-137.35 814.29,-81.12 822.86,-47.23"/>
<polygon fill="#475569" stroke="#475569" stroke-width="1.1" points="826.17,-48.42 825.23,-37.86 819.38,-46.7 826.17,-48.42"/>
</g>
<!-- man_tld_action -->
<g id="node12" class="node">
<title>man_tld_action</title>
<path fill="#f8fafc" stroke="#334155" stroke-width="1.2" d="M456.58,-212.46C456.58,-212.46 325.42,-212.46 325.42,-212.46 319.42,-212.46 313.42,-206.46 313.42,-200.46 313.42,-200.46 313.42,-187.5 313.42,-187.5 313.42,-181.5 319.42,-175.5 325.42,-175.5 325.42,-175.5 456.58,-175.5 456.58,-175.5 462.58,-175.5 468.58,-181.5 468.58,-187.5 468.58,-187.5 468.58,-200.46 468.58,-200.46 468.58,-206.46 462.58,-212.46 456.58,-212.46"/>
<text xml:space="preserve" text-anchor="middle" x="391" y="-196.48" font-family="Helvetica,sans-Serif" font-size="10.00">tld_path = getattr(args, &#39;tld&#39;)</text>
<text xml:space="preserve" text-anchor="middle" x="391" y="-184.48" font-family="Helvetica,sans-Serif" font-size="10.00">Call matching handler(tld_path)</text>
</g>
<!-- man_tld_branch&#45;&gt;man_tld_action -->
<g id="edge10" class="edge">
<title>man_tld_branch&#45;&gt;man_tld_action</title>
<path fill="none" stroke="#475569" stroke-width="1.1" d="M394.39,-264.93C393.71,-250.94 393,-236.39 392.41,-224.21"/>
<polygon fill="#475569" stroke="#475569" stroke-width="1.1" points="395.93,-224.41 391.95,-214.59 388.94,-224.75 395.93,-224.41"/>
</g>
<!-- man_tld_action&#45;&gt;end -->
<g id="edge25" class="edge">
<title>man_tld_action&#45;&gt;end</title>
<path fill="none" stroke="#475569" stroke-width="1.1" d="M447.17,-174.98C466.32,-168.84 483,-163.5 483,-163.5 483,-163.5 682,-122.5 682,-122.5 682,-122.5 744,-78.5 744,-78.5 744,-78.5 777.14,-55.57 802.27,-38.18"/>
<polygon fill="#475569" stroke="#475569" stroke-width="1.1" points="804.16,-41.13 810.39,-32.57 800.18,-35.38 804.16,-41.13"/>
</g>
<!-- man_tld_opt_pattern_branch -->
<g id="node13" class="node">
<title>man_tld_opt_pattern_branch</title>
<path fill="#fef3c7" stroke="#334155" stroke-width="1.2" d="M1083.08,-362.42C1083.08,-362.42 960.92,-362.42 960.92,-362.42 954.92,-362.42 948.92,-356.42 948.92,-350.42 948.92,-350.42 948.92,-289.46 948.92,-289.46 948.92,-283.46 954.92,-277.46 960.92,-277.46 960.92,-277.46 1083.08,-277.46 1083.08,-277.46 1089.08,-277.46 1095.08,-283.46 1095.08,-289.46 1095.08,-289.46 1095.08,-350.42 1095.08,-350.42 1095.08,-356.42 1089.08,-362.42 1083.08,-362.42"/>
<text xml:space="preserve" text-anchor="middle" x="1022" y="-346.44" font-family="Helvetica,sans-Serif" font-size="10.00">mandatory top level directory</text>
<text xml:space="preserve" text-anchor="middle" x="1022" y="-334.44" font-family="Helvetica,sans-Serif" font-size="10.00">with optional file pattern:</text>
<text xml:space="preserve" text-anchor="middle" x="1022" y="-322.44" font-family="Helvetica,sans-Serif" font-size="10.00">convert&#45;walk,</text>
<text xml:space="preserve" text-anchor="middle" x="1022" y="-310.44" font-family="Helvetica,sans-Serif" font-size="10.00">extract&#45;walk,</text>
<text xml:space="preserve" text-anchor="middle" x="1022" y="-298.44" font-family="Helvetica,sans-Serif" font-size="10.00">get&#45;ffprobe&#45;media&#45;info&#45;walk,</text>
<text xml:space="preserve" text-anchor="middle" x="1022" y="-286.44" font-family="Helvetica,sans-Serif" font-size="10.00">list&#45;type</text>
</g>
<!-- man_tld_opt_pattern_action -->
<g id="node14" class="node">
<title>man_tld_opt_pattern_action</title>
<path fill="#f8fafc" stroke="#334155" stroke-width="1.2" d="M1114.58,-218.46C1114.58,-218.46 929.42,-218.46 929.42,-218.46 923.42,-218.46 917.42,-212.46 917.42,-206.46 917.42,-206.46 917.42,-181.5 917.42,-181.5 917.42,-175.5 923.42,-169.5 929.42,-169.5 929.42,-169.5 1114.58,-169.5 1114.58,-169.5 1120.58,-169.5 1126.58,-175.5 1126.58,-181.5 1126.58,-181.5 1126.58,-206.46 1126.58,-206.46 1126.58,-212.46 1120.58,-218.46 1114.58,-218.46"/>
<text xml:space="preserve" text-anchor="middle" x="1022" y="-202.48" font-family="Helvetica,sans-Serif" font-size="10.00">tld_path = getattr(args, &#39;tld&#39;)</text>
<text xml:space="preserve" text-anchor="middle" x="1022" y="-190.48" font-family="Helvetica,sans-Serif" font-size="10.00">file_pattern = getattr(args, &#39;pattern&#39;)</text>
<text xml:space="preserve" text-anchor="middle" x="1022" y="-178.48" font-family="Helvetica,sans-Serif" font-size="10.00">Call matching handler(tld_path, file_pattern)</text>
</g>
<!-- man_tld_opt_pattern_branch&#45;&gt;man_tld_opt_pattern_action -->
<g id="edge11" class="edge">
<title>man_tld_opt_pattern_branch&#45;&gt;man_tld_opt_pattern_action</title>
<path fill="none" stroke="#475569" stroke-width="1.1" d="M1022,-276.97C1022,-261.83 1022,-244.9 1022,-230.37"/>
<polygon fill="#475569" stroke="#475569" stroke-width="1.1" points="1025.5,-230.49 1022,-220.49 1018.5,-230.49 1025.5,-230.49"/>
</g>
<!-- man_tld_opt_pattern_action&#45;&gt;end -->
<g id="edge26" class="edge">
<title>man_tld_opt_pattern_action&#45;&gt;end</title>
<path fill="none" stroke="#475569" stroke-width="1.1" d="M995.71,-169.15C958.21,-135.18 889.94,-73.32 853.85,-40.61"/>
<polygon fill="#475569" stroke="#475569" stroke-width="1.1" points="856.39,-38.19 846.63,-34.07 851.69,-43.38 856.39,-38.19"/>
</g>
<!-- man_tld_two_opt_action -->
<g id="node16" class="node">
<title>man_tld_two_opt_action</title>
<path fill="#f8fafc" stroke="#334155" stroke-width="1.2" d="M1388.2,-224.46C1388.2,-224.46 1167.8,-224.46 1167.8,-224.46 1161.8,-224.46 1155.8,-218.46 1155.8,-212.46 1155.8,-212.46 1155.8,-175.5 1155.8,-175.5 1155.8,-169.5 1161.8,-163.5 1167.8,-163.5 1167.8,-163.5 1388.2,-163.5 1388.2,-163.5 1394.2,-163.5 1400.2,-169.5 1400.2,-175.5 1400.2,-175.5 1400.2,-212.46 1400.2,-212.46 1400.2,-218.46 1394.2,-224.46 1388.2,-224.46"/>
<text xml:space="preserve" text-anchor="middle" x="1278" y="-208.48" font-family="Helvetica,sans-Serif" font-size="10.00">tld_path = getattr(args, &#39;tld&#39;)</text>
<text xml:space="preserve" text-anchor="middle" x="1278" y="-196.48" font-family="Helvetica,sans-Serif" font-size="10.00">file_pattern = getattr(args, &#39;pattern&#39;)</text>
<text xml:space="preserve" text-anchor="middle" x="1278" y="-184.48" font-family="Helvetica,sans-Serif" font-size="10.00">ffprobe = getattr(args, &#39;ffprobe&#39;)</text>
<text xml:space="preserve" text-anchor="middle" x="1278" y="-172.48" font-family="Helvetica,sans-Serif" font-size="10.00">Call matching handler(tld_path, file_pattern, ffprobe)</text>
</g>
<!-- man_tld_two_opt_branch&#45;&gt;man_tld_two_opt_action -->
<g id="edge12" class="edge">
<title>man_tld_two_opt_branch&#45;&gt;man_tld_two_opt_action</title>
<path fill="none" stroke="#475569" stroke-width="1.1" d="M1278,-288.93C1278,-273.1 1278,-253.43 1278,-236.18"/>
<polygon fill="#475569" stroke="#475569" stroke-width="1.1" points="1281.5,-236.38 1278,-226.38 1274.5,-236.38 1281.5,-236.38"/>
</g>
<!-- man_tld_two_opt_action&#45;&gt;end -->
<g id="edge27" class="edge">
<title>man_tld_two_opt_action&#45;&gt;end</title>
<path fill="none" stroke="#475569" stroke-width="1.1" d="M1200.73,-162.97C1101.89,-124.59 934.99,-59.77 863.81,-32.13"/>
<polygon fill="#475569" stroke="#475569" stroke-width="1.1" points="865.37,-28.98 854.78,-28.62 862.84,-35.51 865.37,-28.98"/>
</g>
<!-- man_tld_man_arg_action -->
<g id="node18" class="node">
<title>man_tld_man_arg_action</title>
<path fill="#f8fafc" stroke="#334155" stroke-width="1.2" d="M1658.7,-224.46C1658.7,-224.46 1441.3,-224.46 1441.3,-224.46 1435.3,-224.46 1429.3,-218.46 1429.3,-212.46 1429.3,-212.46 1429.3,-175.5 1429.3,-175.5 1429.3,-169.5 1435.3,-163.5 1441.3,-163.5 1441.3,-163.5 1658.7,-163.5 1658.7,-163.5 1664.7,-163.5 1670.7,-169.5 1670.7,-175.5 1670.7,-175.5 1670.7,-212.46 1670.7,-212.46 1670.7,-218.46 1664.7,-224.46 1658.7,-224.46"/>
<text xml:space="preserve" text-anchor="middle" x="1550" y="-208.48" font-family="Helvetica,sans-Serif" font-size="10.00">Get tld_path,</text>
<text xml:space="preserve" text-anchor="middle" x="1550" y="-196.48" font-family="Helvetica,sans-Serif" font-size="10.00">get command&#45;specific required arg:</text>
<text xml:space="preserve" text-anchor="middle" x="1550" y="-184.48" font-family="Helvetica,sans-Serif" font-size="10.00">leveling type, file pattern, or m3u path</text>
<text xml:space="preserve" text-anchor="middle" x="1550" y="-172.48" font-family="Helvetica,sans-Serif" font-size="10.00">Call matching handler(tld_path, required_argument)</text>
</g>
<!-- man_tld_man_arg_branch&#45;&gt;man_tld_man_arg_action -->
<g id="edge13" class="edge">
<title>man_tld_man_arg_branch&#45;&gt;man_tld_man_arg_action</title>
<path fill="none" stroke="#475569" stroke-width="1.1" d="M1503.8,-283.09C1511.66,-268.1 1520.83,-250.61 1528.92,-235.19"/>
<polygon fill="#475569" stroke="#475569" stroke-width="1.1" points="1532,-236.85 1533.54,-226.37 1525.8,-233.6 1532,-236.85"/>
</g>
<!-- man_tld_man_arg_action&#45;&gt;end -->
<g id="edge28" class="edge">
<title>man_tld_man_arg_action&#45;&gt;end</title>
<path fill="none" stroke="#475569" stroke-width="1.1" d="M1429.08,-163.76C1261.87,-123.36 969.05,-52.6 866.62,-27.85"/>
<polygon fill="#475569" stroke="#475569" stroke-width="1.1" points="867.53,-24.47 856.99,-25.52 865.89,-31.27 867.53,-24.47"/>
</g>
<!-- man_tld_man_file_action -->
<g id="node20" class="node">
<title>man_tld_man_file_action</title>
<path fill="#f8fafc" stroke="#334155" stroke-width="1.2" d="M272.21,-224.46C272.21,-224.46 27.79,-224.46 27.79,-224.46 21.79,-224.46 15.79,-218.46 15.79,-212.46 15.79,-212.46 15.79,-175.5 15.79,-175.5 15.79,-169.5 21.79,-163.5 27.79,-163.5 27.79,-163.5 272.21,-163.5 272.21,-163.5 278.21,-163.5 284.21,-169.5 284.21,-175.5 284.21,-175.5 284.21,-212.46 284.21,-212.46 284.21,-218.46 278.21,-224.46 272.21,-224.46"/>
<text xml:space="preserve" text-anchor="middle" x="150" y="-208.48" font-family="Helvetica,sans-Serif" font-size="10.00">tld_path = getattr(args, &#39;tld&#39;)</text>
<text xml:space="preserve" text-anchor="middle" x="150" y="-196.48" font-family="Helvetica,sans-Serif" font-size="10.00">csv_path = getattr(args, &#39;csv&#39;)</text>
<text xml:space="preserve" text-anchor="middle" x="150" y="-184.48" font-family="Helvetica,sans-Serif" font-size="10.00">Call matching handler(tld_path, csv_path)</text>
<text xml:space="preserve" text-anchor="middle" x="150" y="-172.48" font-family="Helvetica,sans-Serif" font-size="10.00">summary = update_genres_from_csv(tld_path, csv_path)</text>
</g>
<!-- man_tld_man_file_branch&#45;&gt;man_tld_man_file_action -->
<g id="edge14" class="edge">
<title>man_tld_man_file_branch&#45;&gt;man_tld_man_file_action</title>
<path fill="none" stroke="#475569" stroke-width="1.1" d="M162.13,-288.93C160.08,-273.1 157.54,-253.43 155.32,-236.18"/>
<polygon fill="#475569" stroke="#475569" stroke-width="1.1" points="158.8,-235.83 154.05,-226.36 151.86,-236.73 158.8,-235.83"/>
</g>
<!-- man_tld_man_file_result -->
<g id="node21" class="node">
<title>man_tld_man_file_result</title>
<path fill="#fef3c7" stroke="#334155" stroke-width="1.2" d="M544.15,-120.59C544.15,-120.59 456.07,-106.41 456.07,-106.41 450.15,-105.45 450.15,-103.55 456.07,-102.59 456.07,-102.59 544.15,-88.41 544.15,-88.41 550.08,-87.45 561.92,-87.45 567.85,-88.41 567.85,-88.41 655.93,-102.59 655.93,-102.59 661.85,-103.55 661.85,-105.45 655.93,-106.41 655.93,-106.41 567.85,-120.59 567.85,-120.59 561.92,-121.55 550.08,-121.55 544.15,-120.59"/>
<text xml:space="preserve" text-anchor="middle" x="556" y="-101" font-family="Helvetica,sans-Serif" font-size="10.00">print summary details</text>
</g>
<!-- man_tld_man_file_action&#45;&gt;man_tld_man_file_result -->
<g id="edge15" class="edge">
<title>man_tld_man_file_action&#45;&gt;man_tld_man_file_result</title>
<path fill="none" stroke="#475569" stroke-width="1.1" d="M284.63,-163.97C357.04,-148.37 442.58,-129.94 497.99,-118"/>
<polygon fill="#475569" stroke="#475569" stroke-width="1.1" points="498.67,-121.43 507.71,-115.9 497.2,-114.59 498.67,-121.43"/>
</g>
<!-- man_tld_man_file_result&#45;&gt;end -->
<g id="edge29" class="edge">
<title>man_tld_man_file_result&#45;&gt;end</title>
<path fill="none" stroke="#475569" stroke-width="1.1" d="M579.78,-90.02C604.54,-75.97 639.75,-56 639.75,-56 639.75,-56 737.45,-37 792.82,-26.23"/>
<polygon fill="#475569" stroke="#475569" stroke-width="1.1" points="793.16,-29.73 802.31,-24.38 791.83,-22.86 793.16,-29.73"/>
<text xml:space="preserve" text-anchor="middle" x="664.88" y="-57.95" font-family="Helvetica,sans-Serif" font-size="9.00">yes: return 1</text>
</g>
<!-- man_tld_man_file_result&#45;&gt;end -->
<g id="edge30" class="edge">
<title>man_tld_man_file_result&#45;&gt;end</title>
<path fill="none" stroke="#475569" stroke-width="1.1" d="M560.44,-86.62C564.04,-72.97 568.5,-56 568.5,-56 568.5,-56 719.7,-34.61 792.16,-24.35"/>
<polygon fill="#475569" stroke="#475569" stroke-width="1.1" points="792.43,-27.85 801.84,-22.98 791.45,-20.92 792.43,-27.85"/>
<text xml:space="preserve" text-anchor="middle" x="591.75" y="-57.95" font-family="Helvetica,sans-Serif" font-size="9.00">no: return 0</text>
</g>
</g>
</svg>
